<?xml version="1.0" standalone="no"?>
<!DOCTYPE svg PUBLIC "-//W3C//DTD SVG 20010904//EN"
 "http://www.w3.org/TR/2001/REC-SVG-20010904/DTD/svg10.dtd">
<svg version="1.0" xmlns="http://www.w3.org/2000/svg"
 width="1280.000000pt" height="1103.000000pt" viewBox="0 0 1280.000000 1103.000000"
 preserveAspectRatio="xMidYMid meet">
<metadata>
Created by potrace 1.15, written by Peter Selinger 2001-2017
</metadata>
<g transform="translate(0.000000,1103.000000) scale(0.100000,-0.100000)"
fill="#000000" stroke="none">
<path d="M12125 11019 c-636 -81 -1736 -500 -2696 -1027 -1827 -1002 -3234
-2315 -4038 -3767 -34 -60 -61 -107 -61 -105 0 3 7 40 15 83 30 158 16 242
-47 291 -71 54 -160 26 -258 -80 -120 -129 -209 -286 -494 -867 -121 -246
-221 -445 -223 -444 -2 2 8 60 22 128 36 171 43 286 22 341 -13 34 -27 49 -64
69 -45 25 -50 26 -87 13 -65 -23 -103 -60 -180 -177 -106 -162 -233 -395 -376
-692 -69 -143 -166 -343 -217 -445 -86 -171 -92 -181 -87 -135 9 87 -10 179
-47 225 -31 38 -35 40 -88 40 -99 0 -147 -53 -265 -293 -84 -171 -140 -302
-298 -692 -73 -181 -141 -329 -206 -450 -135 -251 -207 -396 -231 -466 -20
-58 -36 -76 -428 -473 -879 -888 -1779 -1858 -1755 -1890 39 -52 134 -166 139
-166 10 0 160 88 253 148 96 62 100 64 375 174 1394 560 2689 888 3505 888
289 0 599 -54 751 -131 81 -41 126 -125 210 -396 110 -356 187 -480 345 -557
146 -71 324 -119 554 -148 134 -17 609 -17 785 0 714 68 1548 250 2455 534
124 38 228 72 232 74 3 2 -10 54 -30 114 -29 87 -40 109 -52 104 -8 -3 -137
-43 -286 -89 -1635 -505 -2962 -653 -3527 -392 -121 56 -151 108 -253 434 -76
241 -126 350 -200 432 -85 94 -224 155 -462 205 -186 39 -343 50 -620 43 -408
-10 -818 -70 -1351 -198 -446 -107 -1102 -308 -1576 -482 -38 -15 -70 -25 -71
-24 -2 1 36 34 84 72 135 109 613 521 862 743 223 200 225 201 272 202 102 1
193 26 453 125 39 15 192 62 340 105 299 86 391 119 448 156 96 63 104 170 18
232 l-40 29 242 98 c438 177 591 244 684 297 161 92 223 157 223 233 0 54 -29
98 -82 124 -36 17 -63 21 -149 21 l-104 0 47 30 c171 107 641 352 1468 763
894 444 1040 538 1040 665 0 147 -126 169 -474 82 -66 -16 -121 -28 -122 -27
-1 1 108 70 244 152 880 535 1846 1157 2147 1383 144 108 311 258 830 746 88
83 315 292 504 465 827 756 1398 1319 1827 1801 623 700 886 1173 810 1455
-20 76 -49 126 -101 174 -117 108 -316 151 -560 120z m313 -245 c108 -30 142
-93 117 -219 -88 -457 -956 -1449 -2495 -2850 -242 -220 -385 -352 -671 -621
-396 -372 -597 -551 -714 -639 -429 -322 -2190 -1430 -2940 -1850 -140 -78
-210 -135 -221 -179 -7 -28 37 -120 61 -130 31 -12 120 -6 200 13 44 11 186
49 315 85 129 37 244 69 255 72 11 2 -322 -168 -740 -379 -946 -477 -1132
-577 -1343 -719 -157 -107 -205 -173 -188 -261 7 -36 56 -90 96 -105 15 -6 57
-13 95 -17 l68 -8 -129 -52 c-71 -29 -237 -97 -369 -150 -398 -162 -511 -221
-561 -294 -31 -45 -32 -110 -4 -157 20 -31 20 -33 3 -38 -10 -3 -91 -26 -181
-51 -90 -25 -201 -58 -247 -75 -47 -16 -85 -27 -85 -26 0 2 107 102 237 222
304 280 1169 1087 1698 1584 1543 1450 1895 1774 3475 3195 1223 1100 1388
1252 1656 1519 194 194 246 254 426 486 113 146 202 266 199 268 -16 6 -510
-207 -611 -264 -655 -373 -2079 -1518 -3895 -3133 -1263 -1124 -1798 -1618
-3128 -2890 l-119 -115 40 80 c22 43 81 183 132 309 90 224 203 494 218 520 4
8 7 -32 7 -88 1 -138 19 -175 99 -200 l55 -18 41 27 c81 54 200 266 499 889
168 350 281 571 281 554 0 -4 -11 -60 -25 -125 -15 -66 -29 -167 -32 -225 l-6
-106 31 -46 c29 -41 37 -46 82 -52 69 -10 120 21 194 118 111 145 216 342 516
962 114 237 230 458 237 452 2 -2 -12 -67 -31 -144 -83 -338 -80 -459 11 -513
86 -51 206 6 253 120 133 324 366 749 603 1105 752 1128 1917 2175 3339 3003
849 494 1786 900 2508 1086 346 89 544 109 688 70z"/>
</g>
</svg>
